<?xml version="1.0" encoding="UTF-8"?>
<svg id="Capa_2" data-name="Capa 2" xmlns="http://www.w3.org/2000/svg" viewBox="0 0 91.89 28.97">
  <defs>
    <style>
      .cls-1 {
        fill: #22c55e;
      }

      .cls-2 {
        fill: #fff;
      }

      .cls-3 {
        fill: #2a3342;
      }
    </style>
  </defs>
  <g id="Capa_1-2" data-name="Capa 1">
    <g>
      <path class="cls-3" d="m55.62,3.07v3.26h-6.81v3.52h5.1v3.17h-5.1v6.76h-4.07V3.07h10.88Z"/>
      <path class="cls-3" d="m61.83,2.17v17.62h-4.07V2.17h4.07Z"/>
      <path class="cls-3" d="m77.31,12.93c0,.38-.02.78-.07,1.19h-9.22c.06.83.33,1.46.79,1.91.48.43,1.06.64,1.74.64,1.02,0,1.72-.43,2.12-1.29h4.33c-.22.87-.63,1.66-1.21,2.36-.57.7-1.29,1.25-2.17,1.64-.87.4-1.85.6-2.93.6-1.3,0-2.46-.28-3.48-.83-1.02-.56-1.81-1.35-2.38-2.38-.57-1.03-.86-2.24-.86-3.62s.28-2.59.83-3.62c.57-1.03,1.37-1.83,2.38-2.38,1.02-.56,2.18-.83,3.5-.83s2.43.27,3.43.81c1,.54,1.78,1.31,2.33,2.31.57,1,.86,2.17.86,3.5Zm-4.17-1.07c0-.7-.24-1.25-.71-1.67-.48-.41-1.07-.62-1.79-.62s-1.26.2-1.74.6c-.46.4-.75.96-.86,1.69h5.1Z"/>
      <path class="cls-3" d="m87.32,19.79l-2.55-3.69-2.14,3.69h-4.41l4.38-6.79-4.5-6.5h4.57l2.55,3.67,2.14-3.67h4.41l-4.45,6.69,4.57,6.6h-4.57Z"/>
      <path class="cls-1" d="m0,10.54c-.03-.78.12-1.52.6-2.16.55-.75,1.25-1.22,2.22-1.12.71.07,1.34.34,1.68,1.04.31.65.36,1.3-.08,1.91-.36.49-.87.66-1.39.14-.15-.15-.17-.34-.12-.51.05-.17.21-.28.4-.29.09,0,.17-.05.25-.06.24-.01.39-.14.44-.35.05-.22-.03-.42-.22-.56-.75-.56-1.76-.39-1.99.61-.16.69.06,1.28.46,1.82.5.68,1.18.97,2.02.98,1.07,0,1.97-.44,2.84-.99.76-.49,1.44-1.09,2.16-1.63.68-.52,1.39-1,2.17-1.35.22-.1.08-.17,0-.25-.29-.29-.6-.56-.86-.87-.67-.81-1.07-1.73-1.17-2.8-.1-1.17.24-2.17,1-3.06C11.05.3,11.82-.09,12.81.02c1.56.18,2.25,1.51,1.67,2.85-.24.56-.98.72-1.43.34-.14-.12-.25-.3-.21-.5.04-.19.13-.35.37-.38.11-.02.23-.05.34-.06.26-.02.37-.17.42-.37.05-.21-.05-.4-.21-.54-.52-.45-1.59-.5-1.95.46-.56,1.49-.21,2.58,1.01,3.64.6.52,1.29.93,2.01,1.28.6.29,1.22.24,1.83.19.35-.03.69-.03,1.04-.07.76-.09,1.42-.34,2.01-.83.91-.76,1.91-1.4,2.93-2.01,1.28-.77,2.61-1.42,4.01-1.93,1.03-.38,2.09-.66,3.17-.84.81-.13,1.61-.24,2.43-.21,2.16.08,4.14.7,5.82,2.1,1.32,1.1,2.31,2.46,2.88,4.08.33.93.42,1.92.32,2.92-.12.12-.02.28-.05.41-.03,0-.06.02-.05.06-.05.27-.13.54-.13.81,0,.23-.14.4-.17.61-.03,0-.06.01-.04.05-.35,1.01-.83,1.95-1.48,2.8-.57.75-1.25,1.37-2.02,1.91-.77.54-1.62.93-2.54,1.03-.88.1-1.78.07-2.66-.19-1.24-.37-2.41-.9-3.59-1.43-.9-.4-1.84-.71-2.82-.88-.75-.13-1.5-.09-2.25.09-2.19.52-3.77,1.8-4.76,3.8-.27.55-.38,1.15-.44,1.77-.1,1,.11,1.93.66,2.76.62.92,1.44,1.58,2.56,1.83,1.06.23,2.04.08,2.94-.54.83-.58,1.41-1.35,1.64-2.32.21-.89.12-1.77-.49-2.52-.41-.51-.9-.91-1.55-1.08-.77-.2-1.63.19-1.99.91-.03,0-.06.02-.04.06-.17.28-.22.6-.19.92.04.38.44.87.98.6.15-.08.32-.14.46-.23.31-.2.63-.22.91,0,.3.25.3.62.19.96-.27.89-1.16,1.24-2.03.81-.92-.46-1.48-1.22-1.69-2.21-.22-1.05.19-1.91.89-2.67.31-.34.69-.59,1.08-.8.35-.19.76-.26,1.15-.31.63-.08,1.26.03,1.83.21.6.19,1.13.59,1.62,1,1,.82,1.57,1.9,1.81,3.14.12.65.09,1.31.02,1.98-.03.32-.17.61-.22.92-.06.38-.35.72-.54,1.07-.79,1.42-2.02,2.35-3.48,2.98-1.08.47-2.24.61-3.41.51-1.01-.09-1.95-.41-2.87-.86-.99-.49-1.84-1.15-2.65-1.89-.87-.79-1.52-1.74-2.09-2.74-.57-1-.96-2.08-1.17-3.23-.11-.58-.2-1.16-.17-1.76.01-.29-.14-.32-.34-.28-.2.04-.39.11-.58.17-.54.17-1.1.3-1.61.58-.67.37-1.28.81-1.7,1.45-.19.29-.45.57-.48.94-.03.32-.17.62-.03.97.06.16-.07.39.04.58.28.49.48,1.05,1.08,1.26.43.15.87.3,1.28-.03.39-.31.63-.7.56-1.23-.06-.37-.44-.53-.75-.32-.36.23-.62.35-.98-.02-.2-.2-.12-.44-.07-.62.14-.49.7-.71,1.21-.61.89.18,1.45,1.19,1.48,1.94.03.66-.25,1.21-.64,1.66-.58.67-1.39.97-2.28.78-.48-.1-.96-.31-1.36-.63-.23-.18-.5-.32-.72-.51-.59-.53-1.02-1.18-1.24-1.94-.17-.57-.15-1.16-.08-1.75.1-.89.46-1.66.96-2.38.42-.61.92-1.16,1.48-1.66.81-.72,1.67-1.35,2.56-1.94,1.01-.66,2.06-1.25,3.1-1.87.11-.07.29-.12.29-.25,0-.14-.18-.19-.31-.24-.7-.28-1.4-.21-2.08.07-1.03.43-2.04.91-3.07,1.34-.82.34-1.65.68-2.53.76-.96.09-1.92.02-2.83-.43-.68-.34-1.29-.75-1.77-1.31C.46,12.27.05,11.47,0,10.54Zm22.79-1.65c-.94-.1-1.69.8-1.72,1.61-.04,1.16.86,1.83,1.7,1.85.99.01,1.75-.75,1.77-1.74.02-.96-.71-1.76-1.75-1.72Z"/>
      <path class="cls-2" d="m41.16,10.6s.01-.05.05-.06c-.02.02-.03.04-.05.06Z"/>
      <path class="cls-2" d="m40.81,12.07s0-.05.04-.05c-.01.02-.03.04-.04.05Z"/>
      <path class="cls-2" d="m21.98,20.07s.01-.05.04-.06c-.01.02-.03.04-.04.06Z"/>
      <path class="cls-2" d="m22.8,8.89c1.04-.04,1.76.76,1.75,1.72-.02.99-.77,1.76-1.77,1.74-.84-.01-1.74-.69-1.7-1.85.03-.82.78-1.71,1.72-1.61Zm.64,1.7c0-.37-.27-.66-.62-.65-.35,0-.71.34-.67.66.04.36.3.63.63.64.36,0,.66-.29.66-.65Z"/>
      <path class="cls-1" d="m23.44,10.6c0,.36-.3.65-.66.65-.33,0-.59-.28-.63-.64-.04-.32.32-.65.67-.66.35,0,.62.27.62.65Z"/>
    </g>
  </g>
</svg>